<svg viewBox="0 0 1080 1080" fill="none" xmlns="http://www.w3.org/2000/svg">      <defs>  <filter id="filter" x="-20%" y="-20%" width="140%" height="140%" filterUnits="objectBoundingBox" primitiveUnits="userSpaceOnUse" color-interpolation-filters="linearRGB">    <feMorphology operator="dilate" radius="20 20" in="SourceAlpha" result="morphology"/>    <feFlood flood-color="#ffffff" flood-opacity="1" result="flood"/>    <feComposite in="flood" in2="morphology" operator="in" result="composite"/>    <feMerge result="merge">          <feMergeNode in="composite" result="mergeNode"/>      <feMergeNode in="SourceGraphic" result="mergeNode1"/>      </feMerge>  </filter></defs>      <g id="notion-avatar" filter="url(#filter)">        <g id="notion-avatar-face" fill="#ffffff">      <!--?xml version="1.0" encoding="UTF-8"?-->    <title>Face/ 4</title>    <g id="Face/-4" stroke="none" stroke-width="1" fill-rule="evenodd" stroke-linecap="round" stroke-linejoin="round">        <path d="M532,379 C664.54834,379 772,486.45166 772,619 C772,751.54834 764.54834,899 592,899 C462.715227,899 358.747776,816.220491 314.739381,718.954345 C313.831676,718.98455 312.917642,719 312,719 C267.81722,719 232,683.18278 232,639 C232,599.134956 261.158843,566.080325 299.312086,560.00055 C325.599297,455.979213 419.809919,379 532,379 Z M295.858895,624.545187 L304.141105,655.454813" id="Path" stroke="#000000" stroke-width="24"/>    </g>    </g><g id="notion-avatar-nose">      <!--?xml version="1.0" encoding="UTF-8"?-->    <title>Nose/ 5</title>    <g id="Nose/-5" stroke="none" stroke-width="1" fill="none" fill-rule="evenodd" stroke-linecap="round" stroke-linejoin="round">        <path d="M673,568 C662.55102,590.836147 657.326531,613.414126 657.326531,635.733939 C657.326531,669.213657 673,686.992054 670.061224,702.552554 C668.102041,712.92622 653.081633,714.756867 625,708.044495" id="Path" stroke="#000000" stroke-width="16"/>    </g>    </g><g id="notion-avatar-mouth">      <g id="Mouth/ 12"><g id="Group"><path id="Path" fill-rule="evenodd" clip-rule="evenodd" d="M543.87 801.555C524.148 789.209 514.057 767.766 521.396 758.019C528.734 748.272 569 762.637 609 762.319C649 762 689.266 748.272 696.604 758.019C703.943 767.766 693.852 789.209 674.13 801.555C665.101 807.207 637.818 814 609.443 814C581.069 814 552.807 807.15 543.87 801.555Z" stroke="black" stroke-width="16" stroke-linecap="round" stroke-linejoin="round"/><path id="Path_2" d="M569.322 804C569.322 804 589.161 796 609 796C628.838 796 648.677 804 648.677 804" stroke="black" stroke-width="8" stroke-linecap="round" stroke-linejoin="round"/></g></g>    </g><g id="notion-avatar-eyes">      <!--?xml version="1.0" encoding="UTF-8"?-->    <title>Eyes/ 10</title>    <g id="Eyes/-10" stroke="none" stroke-width="1" fill="none" fill-rule="evenodd">        <g id="Group" transform="translate(520.000000, 512.000000)">            <g transform="translate(140.000000, 0.000000)">                <circle id="Oval" fill="#000000" cx="52" cy="28" r="24"/>                <path d="M1,16 C24.2727273,8 41.7272727,4 53.3636364,4 C65,4 79.5454545,8 97,16" id="Path" stroke="#000000" stroke-width="12" stroke-linecap="round" stroke-linejoin="round" transform="translate(49.000000, 10.000000) rotate(-4.000000) translate(-49.000000, -10.000000) "/>            </g>            <g>                <circle id="Oval" fill="#000000" transform="translate(46.000000, 28.000000) scale(-1, 1) translate(-46.000000, -28.000000) " cx="46" cy="28" r="24"/>                <path d="M1,16 C24.2727273,8 41.7272727,4 53.3636364,4 C65,4 79.5454545,8 97,16" id="Path" stroke="#000000" stroke-width="12" stroke-linecap="round" stroke-linejoin="round" transform="translate(49.000000, 10.000000) scale(-1, 1) rotate(-4.000000) translate(-49.000000, -10.000000) "/>            </g>        </g>    </g>    </g><g id="notion-avatar-eyebrows">      <!--?xml version="1.0" encoding="UTF-8"?-->    <title>Eyebrows/ 10</title>    <g id="Eyebrows/-10" stroke="none" stroke-width="1" fill="none" fill-rule="evenodd" stroke-linecap="round" stroke-linejoin="round">        <path d="M757,487.2 C757,494.4 735.666667,494.4 717,494.4 C698.333333,494.4 661,498 661,494.4 C661,490.8 694.986112,480 717,480 L720.27013,480.0009 C740.767534,480.018 757,480.36 757,487.2 Z M561,480 C583.013888,480 617,490.8 617,494.4 C617,498 579.666667,494.4 561,494.4 C542.333333,494.4 521,494.4 521,487.2 C521,480.36 537.232466,480.018 557.72987,480.0009 Z" id="Combined-Shape" stroke="#000000" stroke-width="16" fill="#000000"/>    </g>    </g><g id="notion-avatar-glasses">      <!--?xml version="1.0" encoding="UTF-8"?-->    <title>Glasses/ 7</title>    <g id="Glasses/-7" stroke="none" stroke-width="1" fill="none" fill-rule="evenodd" stroke-linecap="round" stroke-linejoin="round">        <g id="Group" transform="translate(289.000000, 502.000000)" fill="#000000" stroke="#000000" stroke-width="4">            <path d="M339.740368,39.6303745 C323.440763,83.0959855 305.148598,104 266.642657,104 C226.661085,104 208.819095,87.634841 206.637074,34.1753215 C206.548706,32.0103005 204.003015,29.8282793 199,27.6292579 L199,6.90005646 C238.696939,1.25810378 267.426885,-0.923917428 285.189838,0.353992852 C297.612079,1.2476793 312.018598,4.36213391 328.409394,9.69735669 C333.107339,11.2265431 340.521032,12.1124607 350.650474,12.3551095 L351.336909,12.3375684 C361.115498,12.0718595 368.30038,11.1917889 372.891553,9.69735669 C389.282349,4.36213391 403.688868,1.2476793 416.11111,0.353992852 C433.874063,-0.923917428 462.604008,1.25810378 502.300947,6.90005646 L502.300947,6.90005646 L502.300947,27.6292579 C497.297933,29.8282793 494.752241,32.0103005 494.663873,34.1753215 C492.481852,87.634841 474.639862,104 434.65829,104 C396.15235,104 377.860184,83.0959855 361.56058,39.6303745 C359.378558,33.8116513 355.741856,30.9022897 350.650474,30.9022897 L350.650474,30.9022897 C345.559091,30.9022897 341.922389,33.8116513 339.740368,39.6303745 Z" id="Combined-Shape"/>            <polygon id="Path" points="199 7 4 39 0 48 199 28"/>        </g>    </g>    </g><g id="notion-avatar-hair">      <g id="Hairstyle/ 35"><path id="Path" fill-rule="evenodd" clip-rule="evenodd" d="M445 265C601.485 215.883 723 324 727 324C729.667 324 729.333 314 732 310C732 310 764 352 760 396C756 440 752.216 445.551 737 470C717.816 433.899 655.516 405.849 570.098 405.849C529.82 405.849 496.705 408.638 444 422C444 422 429.543 433.177 425 438C415.42 448.172 412.102 455.977 408 461C408 461 408.354 437.736 409.769 431.439C399.445 434.309 388.894 437.421 378.119 440.774C378.861 449.966 379.156 482.708 387 499L371 622L368.124 619.455C345.932 599.757 331.688 585.779 325.391 577.52L325 577C318.661 568.473 305.994 562.473 287 559L286.069 555.564C277.514 524.212 269.945 502.053 266.881 480.742C254.807 485.592 242.513 490.679 230 496C269.01 358.746 340.677 297.746 445 265Z" fill="black" stroke="black" stroke-width="12" stroke-linecap="round" stroke-linejoin="round"/></g>    </g><g id="notion-avatar-accessories">      <!--?xml version="1.0" encoding="UTF-8"?-->    <title>Accessories/ 0</title>    <g id="Accessories/-0" stroke="none" stroke-width="1" fill="none" fill-rule="evenodd"/>    </g><g id="notion-avatar-details">      <!--?xml version="1.0" encoding="UTF-8"?-->    <title>Details/ 0</title>    <g id="Details/-0" stroke="none" stroke-width="1" fill="none" fill-rule="evenodd"/>    </g><g id="notion-avatar-beard">      <g id="Beard/ 13"><g id="Shape"><path fill-rule="evenodd" clip-rule="evenodd" d="M369.784 644C393.129 725.816 419.796 770.483 449.784 778C494.767 789.275 498.784 731 532.784 712C566.784 693 623.784 715 659.784 715C695.784 715 758.703 700.707 771.784 705C784.866 709.293 783.106 837.47 724.784 899C693.941 926.615 681.399 926.571 623.784 927C566.17 927.429 482.098 914.714 411.784 857C364.909 818.524 347.575 747.524 359.784 644H369.784ZM550.784 724C533.514 736.44 501.515 784.317 518.784 798C536.054 811.683 595.517 796 633.784 796C672.052 796 713.028 804.22 718.784 798C724.541 791.78 721.784 743 705.784 731C689.784 719 656.694 736 638.784 736C620.875 736 568.054 711.56 550.784 724Z" fill="black"/><path d="M369.784 644L375.554 642.354C374.819 639.777 372.464 638 369.784 638V644ZM449.784 778L448.325 783.82L449.784 778ZM724.784 899L728.786 903.47C728.909 903.361 729.026 903.247 729.139 903.128L724.784 899ZM411.784 857L407.977 861.638L411.784 857ZM359.784 644V638C356.742 638 354.182 640.276 353.826 643.297L359.784 644ZM638.784 736V730V736ZM364.014 645.646C375.752 686.782 388.426 718.965 402.141 741.938C415.766 764.76 431.014 779.481 448.325 783.82L451.243 772.18C438.566 769.002 425.486 757.631 412.445 735.787C399.493 714.093 387.162 683.035 375.554 642.354L364.014 645.646ZM448.325 783.82C460.941 786.982 471.245 785.335 479.948 780.313C488.362 775.457 494.762 767.729 500.318 759.795C503.115 755.8 505.824 751.561 508.477 747.469C511.16 743.33 513.814 739.294 516.629 735.471C522.274 727.806 528.294 721.383 535.711 717.238L529.857 706.762C520.275 712.117 513.043 720.104 506.966 728.356C503.92 732.493 501.096 736.793 498.407 740.942C495.687 745.138 493.129 749.14 490.488 752.912C485.167 760.512 480.002 766.426 473.95 769.92C468.185 773.246 461.119 774.656 451.243 772.18L448.325 783.82ZM535.711 717.238C550.806 708.802 571.717 709.194 594.726 712.32C606.139 713.871 617.434 715.984 628.578 717.783C639.54 719.552 650.264 721 659.784 721V709C651.304 709 641.403 707.698 630.49 705.936C619.76 704.204 607.929 702.004 596.342 700.43C573.352 697.306 548.762 696.198 529.857 706.762L535.711 717.238ZM659.784 721C678.302 721 703.533 717.343 725.204 714.333C736.165 712.811 746.231 711.449 754.358 710.728C758.42 710.368 761.88 710.179 764.653 710.197C767.563 710.216 769.203 710.468 769.913 710.701L773.655 699.299C771.096 698.459 767.907 698.218 764.732 698.197C761.419 698.176 757.536 698.399 753.298 698.775C744.823 699.527 734.457 700.933 723.553 702.447C701.495 705.511 677.266 709 659.784 709V721ZM769.913 710.701C768.666 710.292 768.461 709.529 768.866 710.225C769.19 710.784 769.647 711.855 770.12 713.609C771.058 717.082 771.8 722.222 772.17 728.808C772.907 741.911 772.124 759.84 769.128 779.638C763.105 819.439 748.347 865.419 720.43 894.872L729.139 903.128C759.543 871.051 774.827 822.177 780.993 781.434C784.092 760.96 784.942 742.194 784.151 728.134C783.758 721.138 782.947 715.079 781.705 710.48C781.089 708.198 780.299 706.016 779.24 704.195C778.262 702.512 776.537 700.245 773.655 699.299L769.913 710.701ZM720.782 894.53C705.688 908.044 695.712 914.212 682.889 917.369C669.549 920.653 652.868 920.783 623.74 921L623.829 933C652.315 932.788 670.713 932.725 685.758 929.021C701.321 925.189 713.038 917.571 728.786 903.47L720.782 894.53ZM623.74 921C566.901 921.424 484.417 908.856 415.591 852.362L407.977 861.638C479.778 920.573 565.438 933.435 623.829 933L623.74 921ZM415.591 852.362C371.172 815.902 353.6 747.662 365.743 644.703L353.826 643.297C341.55 747.385 358.645 821.145 407.977 861.638L415.591 852.362ZM359.784 650H369.784V638H359.784V650ZM547.277 719.132C537.641 726.073 524.784 742.006 516.52 757.744C512.364 765.658 509.088 774.041 508.118 781.656C507.155 789.221 508.365 797.4 515.058 802.703L522.51 793.297C520.568 791.759 519.303 788.821 520.022 783.172C520.735 777.574 523.3 770.644 527.144 763.323C534.88 748.592 546.658 734.367 554.291 728.868L547.277 719.132ZM515.058 802.703C520.925 807.351 529.516 808.986 538.341 809.452C547.422 809.931 558.047 809.212 569.015 808.101C591.4 805.832 615.046 802 633.784 802V790C614.255 790 589.035 794.01 567.805 796.162C556.965 797.26 547.094 797.897 538.973 797.468C530.596 797.026 525.278 795.49 522.51 793.297L515.058 802.703ZM633.784 802C652.602 802 672.053 804.02 687.991 805.313C695.846 805.95 702.985 806.421 708.575 806.31C711.362 806.255 714.013 806.053 716.294 805.569C718.37 805.129 721.171 804.255 723.188 802.076L714.381 793.924C714.959 793.3 715.22 793.53 713.803 793.83C712.592 794.088 710.798 794.264 708.337 794.313C703.429 794.41 696.852 793.992 688.961 793.352C673.405 792.09 653.234 790 633.784 790V802ZM723.188 802.076C725.045 800.068 725.902 797.28 726.385 795.159C726.93 792.763 727.262 789.937 727.423 786.915C727.747 780.849 727.416 773.411 726.388 765.858C725.361 758.314 723.609 750.426 720.983 743.523C718.417 736.777 714.734 730.212 709.384 726.2L702.184 735.8C704.835 737.788 707.496 741.821 709.767 747.79C711.978 753.603 713.555 760.549 714.498 767.477C715.439 774.396 715.718 781.07 715.44 786.275C715.3 788.888 715.028 790.987 714.684 792.496C714.278 794.28 713.962 794.377 714.381 793.924L723.188 802.076ZM709.384 726.2C704.006 722.166 697.527 720.825 691.184 720.72C684.849 720.614 678.112 721.733 671.712 723.14C665.458 724.515 658.677 726.375 653.161 727.696C647.301 729.1 642.485 730 638.784 730V742C644.038 742 650.074 740.775 655.956 739.366C662.182 737.875 668.031 736.235 674.288 734.86C680.399 733.517 686.055 732.636 690.984 732.718C695.905 732.8 699.563 733.834 702.184 735.8L709.384 726.2ZM638.784 730C635.24 730 629.355 728.719 621.476 726.584C614.067 724.577 604.792 721.789 596.047 719.526C587.16 717.227 577.948 715.224 569.725 714.642C561.755 714.078 553.384 714.733 547.277 719.132L554.291 728.868C556.819 727.047 561.527 726.092 568.878 726.612C575.975 727.114 584.326 728.889 593.041 731.144C601.899 733.436 610.267 735.98 618.338 738.167C625.94 740.226 633.374 742 638.784 742V730Z" fill="black"/></g></g>    </g>      </g>      </svg>